<mxfile host="app.diagrams.net" modified="2023-04-22T19:54:52.363Z" agent="Mozilla/5.0 (Windows NT 10.0; Win64; x64) AppleWebKit/537.36 (KHTML, like Gecko) Chrome/108.0.0.0 Safari/537.36" version="21.2.1" etag="5ifSZrynhBuXMpyRZFJX" type="device">
  <diagram id="tzH_C864NWuCrZTLBtnA" name="第 1 页">
    <mxGraphModel dx="871" dy="599" grid="1" gridSize="10" guides="1" tooltips="1" connect="1" arrows="1" fold="1" page="1" pageScale="1" pageWidth="827" pageHeight="1169" math="0" shadow="0">
      <root>
        <mxCell id="0" />
        <mxCell id="1" parent="0" />
        <mxCell id="XgqcF4pXMr534cwCG_M5-22" value="" style="group;strokeColor=none;" vertex="1" connectable="0" parent="1">
          <mxGeometry x="120" y="100" width="380" height="140" as="geometry" />
        </mxCell>
        <mxCell id="XgqcF4pXMr534cwCG_M5-1" value="Sleep" style="ellipse;whiteSpace=wrap;html=1;aspect=fixed;fontStyle=1" vertex="1" parent="XgqcF4pXMr534cwCG_M5-22">
          <mxGeometry x="40" y="60" width="50" height="50" as="geometry" />
        </mxCell>
        <mxCell id="XgqcF4pXMr534cwCG_M5-6" style="edgeStyle=orthogonalEdgeStyle;rounded=0;orthogonalLoop=1;jettySize=auto;html=1;exitX=0;exitY=0.5;exitDx=0;exitDy=0;entryX=1;entryY=0.5;entryDx=0;entryDy=0;fontStyle=1" edge="1" parent="XgqcF4pXMr534cwCG_M5-22" source="XgqcF4pXMr534cwCG_M5-2" target="XgqcF4pXMr534cwCG_M5-1">
          <mxGeometry relative="1" as="geometry" />
        </mxCell>
        <mxCell id="XgqcF4pXMr534cwCG_M5-2" value="Eat" style="ellipse;whiteSpace=wrap;html=1;aspect=fixed;fontStyle=1" vertex="1" parent="XgqcF4pXMr534cwCG_M5-22">
          <mxGeometry x="120" y="60" width="50" height="50" as="geometry" />
        </mxCell>
        <mxCell id="XgqcF4pXMr534cwCG_M5-4" style="edgeStyle=orthogonalEdgeStyle;rounded=0;orthogonalLoop=1;jettySize=auto;html=1;exitX=1;exitY=0;exitDx=0;exitDy=0;entryX=0;entryY=0;entryDx=0;entryDy=0;fontStyle=1" edge="1" parent="XgqcF4pXMr534cwCG_M5-22" source="XgqcF4pXMr534cwCG_M5-1" target="XgqcF4pXMr534cwCG_M5-2">
          <mxGeometry relative="1" as="geometry" />
        </mxCell>
        <mxCell id="XgqcF4pXMr534cwCG_M5-7" style="edgeStyle=orthogonalEdgeStyle;rounded=0;orthogonalLoop=1;jettySize=auto;html=1;exitX=0;exitY=0.5;exitDx=0;exitDy=0;entryX=1;entryY=0.5;entryDx=0;entryDy=0;fontStyle=1" edge="1" parent="XgqcF4pXMr534cwCG_M5-22" source="XgqcF4pXMr534cwCG_M5-3" target="XgqcF4pXMr534cwCG_M5-2">
          <mxGeometry relative="1" as="geometry" />
        </mxCell>
        <mxCell id="XgqcF4pXMr534cwCG_M5-12" style="edgeStyle=orthogonalEdgeStyle;rounded=0;orthogonalLoop=1;jettySize=auto;html=1;exitX=0.5;exitY=0;exitDx=0;exitDy=0;entryX=0.5;entryY=0;entryDx=0;entryDy=0;curved=1;" edge="1" parent="XgqcF4pXMr534cwCG_M5-22" source="XgqcF4pXMr534cwCG_M5-3" target="XgqcF4pXMr534cwCG_M5-1">
          <mxGeometry relative="1" as="geometry">
            <Array as="points">
              <mxPoint x="225" y="30" />
              <mxPoint x="65" y="30" />
            </Array>
          </mxGeometry>
        </mxCell>
        <mxCell id="XgqcF4pXMr534cwCG_M5-3" value="Play" style="ellipse;whiteSpace=wrap;html=1;aspect=fixed;fontStyle=1" vertex="1" parent="XgqcF4pXMr534cwCG_M5-22">
          <mxGeometry x="200" y="60" width="50" height="50" as="geometry" />
        </mxCell>
        <mxCell id="XgqcF4pXMr534cwCG_M5-10" style="edgeStyle=orthogonalEdgeStyle;rounded=0;orthogonalLoop=1;jettySize=auto;html=1;exitX=0;exitY=1;exitDx=0;exitDy=0;entryX=0;entryY=0.5;entryDx=0;entryDy=0;curved=1;" edge="1" parent="XgqcF4pXMr534cwCG_M5-22" source="XgqcF4pXMr534cwCG_M5-1" target="XgqcF4pXMr534cwCG_M5-1">
          <mxGeometry relative="1" as="geometry">
            <Array as="points">
              <mxPoint x="47" y="110" />
              <mxPoint x="10" y="110" />
              <mxPoint x="10" y="85" />
            </Array>
          </mxGeometry>
        </mxCell>
        <mxCell id="XgqcF4pXMr534cwCG_M5-9" style="edgeStyle=orthogonalEdgeStyle;rounded=0;orthogonalLoop=1;jettySize=auto;html=1;exitX=0;exitY=0;exitDx=0;exitDy=0;entryX=1;entryY=0;entryDx=0;entryDy=0;curved=1;" edge="1" parent="XgqcF4pXMr534cwCG_M5-22" source="XgqcF4pXMr534cwCG_M5-1" target="XgqcF4pXMr534cwCG_M5-3">
          <mxGeometry relative="1" as="geometry">
            <Array as="points">
              <mxPoint x="47" y="10" />
              <mxPoint x="243" y="10" />
            </Array>
          </mxGeometry>
        </mxCell>
        <mxCell id="XgqcF4pXMr534cwCG_M5-11" style="edgeStyle=orthogonalEdgeStyle;rounded=0;orthogonalLoop=1;jettySize=auto;html=1;exitX=1;exitY=1;exitDx=0;exitDy=0;entryX=1;entryY=0.5;entryDx=0;entryDy=0;curved=1;" edge="1" parent="XgqcF4pXMr534cwCG_M5-22" source="XgqcF4pXMr534cwCG_M5-3" target="XgqcF4pXMr534cwCG_M5-3">
          <mxGeometry relative="1" as="geometry">
            <Array as="points">
              <mxPoint x="243" y="110" />
              <mxPoint x="280" y="110" />
              <mxPoint x="280" y="85" />
            </Array>
          </mxGeometry>
        </mxCell>
        <mxCell id="XgqcF4pXMr534cwCG_M5-5" style="edgeStyle=orthogonalEdgeStyle;rounded=0;orthogonalLoop=1;jettySize=auto;html=1;exitX=1;exitY=0;exitDx=0;exitDy=0;entryX=0;entryY=0;entryDx=0;entryDy=0;fontStyle=1" edge="1" parent="XgqcF4pXMr534cwCG_M5-22" source="XgqcF4pXMr534cwCG_M5-2" target="XgqcF4pXMr534cwCG_M5-3">
          <mxGeometry relative="1" as="geometry" />
        </mxCell>
        <mxCell id="XgqcF4pXMr534cwCG_M5-13" style="edgeStyle=orthogonalEdgeStyle;rounded=0;orthogonalLoop=1;jettySize=auto;html=1;exitX=0;exitY=1;exitDx=0;exitDy=0;entryX=1;entryY=1;entryDx=0;entryDy=0;curved=1;" edge="1" parent="XgqcF4pXMr534cwCG_M5-22" source="XgqcF4pXMr534cwCG_M5-2" target="XgqcF4pXMr534cwCG_M5-2">
          <mxGeometry relative="1" as="geometry">
            <Array as="points">
              <mxPoint x="110" y="103" />
              <mxPoint x="110" y="130" />
              <mxPoint x="180" y="130" />
              <mxPoint x="180" y="103" />
            </Array>
          </mxGeometry>
        </mxCell>
        <mxCell id="XgqcF4pXMr534cwCG_M5-14" value="&lt;b&gt;?&lt;/b&gt;" style="shape=umlActor;verticalLabelPosition=bottom;verticalAlign=top;html=1;outlineConnect=0;" vertex="1" parent="XgqcF4pXMr534cwCG_M5-22">
          <mxGeometry x="344" y="30" width="30" height="60" as="geometry" />
        </mxCell>
        <mxCell id="XgqcF4pXMr534cwCG_M5-20" value="Sleep&lt;br style=&quot;border-color: var(--border-color);&quot;&gt;&lt;br style=&quot;border-color: var(--border-color);&quot;&gt;Eat&lt;br style=&quot;border-color: var(--border-color);&quot;&gt;&lt;br style=&quot;border-color: var(--border-color);&quot;&gt;Play" style="rounded=1;whiteSpace=wrap;html=1;" vertex="1" parent="XgqcF4pXMr534cwCG_M5-22">
          <mxGeometry x="294" y="20" width="46" height="90" as="geometry" />
        </mxCell>
        <mxCell id="XgqcF4pXMr534cwCG_M5-21" value="" style="rounded=0;whiteSpace=wrap;html=1;fillColor=none;strokeColor=none;" vertex="1" parent="XgqcF4pXMr534cwCG_M5-22">
          <mxGeometry width="380" height="140" as="geometry" />
        </mxCell>
      </root>
    </mxGraphModel>
  </diagram>
</mxfile>
